<svg width="80" height="80" viewBox="0 0 80 80" fill="none" xmlns="http://www.w3.org/2000/svg">
<path fill-rule="evenodd" clip-rule="evenodd" d="M40.0001 70C56.5686 70 70.0001 56.5685 70.0001 40C70.0001 23.4314 56.5686 9.99997 40.0001 9.99997C23.4315 9.99997 10.0001 23.4314 10.0001 40C10.0001 56.5685 23.4315 70 40.0001 70ZM76.6667 40C76.6667 60.2504 60.2505 76.6666 40.0001 76.6666C19.7496 76.6666 3.33342 60.2504 3.33342 40C3.33342 19.7495 19.7496 3.3333 40.0001 3.3333C60.2505 3.3333 76.6667 19.7495 76.6667 40Z" fill="white"/>
<path d="M37.6431 50.9763C36.3413 52.278 36.3413 54.3886 37.6431 55.6903C38.9448 56.9921 41.0554 56.9921 42.3571 55.6903L55.6904 42.357C56.9922 41.0552 56.9922 38.9447 55.6904 37.6429L42.3571 24.3096C41.0554 23.0079 38.9448 23.0079 37.6431 24.3096C36.3413 25.6114 36.3413 27.7219 37.6431 29.0237L45.286 36.6666H26.6668C24.8258 36.6666 23.3334 38.159 23.3334 40C23.3334 41.8409 24.8258 43.3333 26.6668 43.3333H45.286L37.6431 50.9763Z" fill="white"/>
</svg>
