<svg width="80" height="80" viewBox="0 0 80 80" fill="none" xmlns="http://www.w3.org/2000/svg">
<path fill-rule="evenodd" clip-rule="evenodd" d="M39.9999 10C23.4314 10 9.99992 23.4315 9.99992 40C9.99992 56.5686 23.4314 70 39.9999 70C56.5685 70 69.9999 56.5686 69.9999 40C69.9999 23.4315 56.5685 10 39.9999 10ZM3.33325 40C3.33325 19.7496 19.7495 3.33337 39.9999 3.33337C60.2504 3.33337 76.6666 19.7496 76.6666 40C76.6666 60.2505 60.2504 76.6667 39.9999 76.6667C19.7495 76.6667 3.33325 60.2505 3.33325 40Z" fill="white"/>
<path d="M42.3569 29.0237C43.6587 27.722 43.6587 25.6114 42.3569 24.3097C41.0552 23.0079 38.9446 23.0079 37.6429 24.3097L24.3096 37.643C23.0078 38.9448 23.0078 41.0553 24.3096 42.3571L37.6429 55.6904C38.9446 56.9921 41.0552 56.9921 42.3569 55.6904C43.6587 54.3886 43.6587 52.2781 42.3569 50.9763L34.714 43.3334H53.3332C55.1742 43.3334 56.6666 41.841 56.6666 40C56.6666 38.1591 55.1742 36.6667 53.3332 36.6667H34.714L42.3569 29.0237Z" fill="white"/>
</svg>
