<svg width="57" height="57" viewBox="0 0 57 57" fill="none" xmlns="http://www.w3.org/2000/svg">
<path d="M28.5 6.20035C30.8475 3.62853 36.7895 0.54232 42.9872 1.05672C51.4381 1.75812 54.8587 10.4088 55.0599 11.344C56.2671 14.5393 57.2732 23.5952 51.6393 34.2566C46.0054 44.9179 33.8656 53.1945 28.5 56.0001" stroke="white" stroke-width="2" stroke-linecap="round"/>
<path d="M28.6357 6.18366C26.2767 3.6201 20.3053 0.543789 14.0769 1.05653C5.58427 1.75569 2.14677 10.3786 1.94456 11.3108C0.731326 14.4958 -0.279703 23.5227 5.38206 34.1498C11.0438 44.777 23.2436 53.027 28.6357 55.8236" stroke="white" stroke-width="2" stroke-linecap="round"/>
<path d="M12.3234 31.7629C8.95326 27.0242 4.23512 15.729 12.3234 8.45776" stroke="white" stroke-width="2"/>
</svg>
