<svg width="52" height="54" viewBox="0 0 52 54" fill="none" xmlns="http://www.w3.org/2000/svg">
<path d="M26 5.83354C28.1341 3.44313 33.5359 0.574603 39.1702 1.05272C46.8528 1.70465 49.9625 9.74513 50.1454 10.6144C51.2429 13.5843 52.1575 22.0014 47.0358 31.9108C41.914 41.8201 30.8779 49.5129 26 52.1206" stroke="#ffffff" stroke-width="2" stroke-linecap="round"/>
<path d="M26.1238 5.81803C23.9792 3.43529 18.5506 0.575968 12.8885 1.05255C5.16785 1.70239 2.04285 9.71706 1.85902 10.5835C0.756079 13.5439 -0.16304 21.934 4.98403 31.8116C10.1311 41.6891 21.2218 49.3572 26.1238 51.9566" stroke="#ffffff" stroke-width="2" stroke-linecap="round"/>
<path d="M11.2936 29.5928C8.22986 25.1883 3.94063 14.6898 11.2936 7.93152" stroke="#ffffff" stroke-width="2"/>
</svg>
