<svg width="40" height="39" viewBox="0 0 40 39" fill="none" xmlns="http://www.w3.org/2000/svg">
<ellipse cx="20.0249" cy="19.5" rx="19.6639" ry="19.5" fill="url(#paint0_linear)"/>
<path d="M26.4951 11.7H14.538C13.188 11.7 12.1594 12.72 12.1594 14.0587V25.9162C12.1594 27.255 13.188 28.275 14.538 28.275H26.4951C27.8451 28.275 28.8737 27.255 28.8737 25.9162V14.0587C28.8737 12.72 27.8451 11.7 26.4951 11.7ZM20.5166 24.96C23.2809 24.96 25.5309 22.7925 25.5309 20.1787C25.5309 19.7325 25.4666 19.2225 25.338 18.84H26.7523V25.5975C26.7523 25.9162 26.4951 26.235 26.1094 26.235H14.9237C14.6023 26.235 14.2809 25.98 14.2809 25.5975V18.7762H15.7594C15.6309 19.2225 15.5666 19.6687 15.5666 20.115C15.5023 22.7925 17.7523 24.96 20.5166 24.96ZM20.5166 23.0475C18.7166 23.0475 17.3023 21.645 17.3023 19.9237C17.3023 18.2025 18.7166 16.8 20.5166 16.8C22.3166 16.8 23.7309 18.2025 23.7309 19.9237C23.7309 21.7087 22.3166 23.0475 20.5166 23.0475ZM26.688 16.2262C26.688 16.6087 26.3666 16.9275 25.9809 16.9275H24.1809C23.7951 16.9275 23.4737 16.6087 23.4737 16.2262V14.505C23.4737 14.1225 23.7951 13.8037 24.1809 13.8037H25.9809C26.3666 13.8037 26.688 14.1225 26.688 14.505V16.2262Z" fill="white"/>
<defs>
<linearGradient id="paint0_linear" x1="8.71823" y1="34.6125" x2="34.5468" y2="7.58401" gradientUnits="userSpaceOnUse">
<stop stop-color="#7DBDEC"/>
<stop offset="0.502762" stop-color="#7DBDEC"/>
<stop offset="1" stop-color="#7DBDEC"/>
</linearGradient>
</defs>
</svg>
