<svg width="40" height="39" viewBox="0 0 40 39" fill="none" xmlns="http://www.w3.org/2000/svg">
<ellipse cx="20.0169" cy="19.5" rx="19.6639" ry="19.5" fill="#7DBDEC"/>
<path d="M29.6583 24.4874C29.6583 24.4064 29.5767 24.4065 29.5767 24.3255C29.2501 23.6779 28.5155 22.8685 27.536 21.978C27.0462 21.5733 26.8013 21.2495 26.6381 21.0876C26.3932 20.7638 26.3932 20.521 26.4748 20.1972C26.5564 19.9544 26.8829 19.5496 27.4543 18.8211C27.7808 18.4163 27.9441 18.1735 28.189 17.9307C29.4134 16.3117 29.9848 15.2594 29.8215 14.7737L29.7399 14.6928C29.6583 14.6118 29.5766 14.5309 29.4134 14.5309C29.2501 14.4499 29.0053 14.4499 28.7604 14.5309H25.6585C25.5769 14.5309 25.5769 14.5309 25.4136 14.5309C25.332 14.5309 25.2504 14.5309 25.2504 14.5309H25.1688H25.0871L25.0055 14.6118C24.9239 14.6928 24.9239 14.6928 24.9239 14.7737C24.5974 15.6641 24.1892 16.3927 23.7811 17.2021C23.5362 17.6069 23.2913 18.0116 23.0464 18.3354C22.8016 18.6592 22.6383 18.902 22.475 19.0639C22.3118 19.2258 22.1485 19.3068 22.0669 19.4687C21.9853 19.5496 21.822 19.6306 21.822 19.5496C21.7404 19.5496 21.6588 19.5496 21.6588 19.4687C21.5771 19.3877 21.4955 19.3068 21.4139 19.2258C21.3323 19.1449 21.3323 18.983 21.2506 18.8211C21.2506 18.6592 21.2506 18.4973 21.2506 18.4163C21.2506 18.3354 21.2506 18.0926 21.2506 17.9307C21.2506 17.6878 21.2506 17.5259 21.2506 17.445C21.2506 17.2021 21.2506 16.8784 21.2506 16.5546C21.2506 16.2308 21.2506 15.9879 21.2506 15.826C21.2506 15.6641 21.2506 15.4213 21.2506 15.2594C21.2506 15.0166 21.2506 14.8547 21.2506 14.7737C21.2506 14.6928 21.169 14.5309 21.169 14.4499C21.0874 14.369 21.0057 14.288 20.9241 14.2071C20.8425 14.1261 20.6792 14.1261 20.5976 14.0452C20.1895 13.9642 19.6997 13.8833 19.1283 13.8833C17.8223 13.8833 16.9244 13.9643 16.5979 14.1261C16.4346 14.2071 16.2714 14.288 16.1897 14.4499C16.0265 14.6118 16.0265 14.6928 16.1081 14.6928C16.5162 14.7737 16.8428 14.9356 17.006 15.1785L17.0876 15.3404C17.1693 15.4213 17.1693 15.5832 17.2509 15.826C17.3325 16.0689 17.3325 16.3117 17.3325 16.6355C17.3325 17.1212 17.3325 17.6069 17.3325 17.9307C17.3325 18.3354 17.2509 18.5782 17.2509 18.8211C17.2509 19.0639 17.1693 19.2258 17.0876 19.3068C17.006 19.4687 17.006 19.5496 16.9244 19.5496C16.9244 19.5496 16.9244 19.6306 16.8427 19.6306C16.7611 19.6306 16.6795 19.7115 16.5162 19.7115C16.4346 19.7115 16.2714 19.6306 16.1897 19.5496C16.0265 19.4687 15.8632 19.3068 15.7816 19.1449C15.6183 18.983 15.4551 18.7401 15.2918 18.4163C15.1286 18.0926 14.8837 17.7688 14.7204 17.2831L14.5572 16.9593C14.4756 16.7974 14.3123 16.4736 14.149 16.0689C13.9858 15.6641 13.8225 15.3404 13.6593 14.9356C13.5776 14.7737 13.496 14.6928 13.4144 14.6118H13.3328C13.3328 14.6118 13.2511 14.5309 13.1695 14.5309C13.0879 14.5309 13.0063 14.4499 12.9246 14.4499H9.98603C9.65952 14.4499 9.49627 14.5309 9.41464 14.6118L9.33301 14.6928C9.33301 14.6928 9.33301 14.7737 9.33301 14.8547C9.33301 14.9356 9.33301 15.0166 9.41464 15.1785C9.82278 16.1498 10.3125 17.1212 10.8023 18.0926C11.2921 18.983 11.7818 19.7925 12.1084 20.3591C12.5165 20.9257 12.843 21.4924 13.2511 21.978C13.6593 22.4637 13.9042 22.7875 13.9858 22.9494C14.149 23.1113 14.2307 23.1922 14.3123 23.2732L14.5572 23.516C14.7204 23.6779 14.9653 23.9208 15.2918 24.1636C15.6183 24.4065 16.0265 24.6493 16.4346 24.8921C16.8427 25.135 17.3325 25.2969 17.8223 25.4588C18.3937 25.6207 18.8834 25.7016 19.3732 25.6207H20.5976C20.8425 25.6207 21.0058 25.5397 21.169 25.3778L21.2506 25.2969C21.2506 25.2159 21.3323 25.2159 21.3323 25.135C21.3323 25.054 21.3323 24.9731 21.3323 24.8112C21.3323 24.4874 21.3323 24.2446 21.4139 24.0017C21.4955 23.7589 21.4955 23.597 21.5772 23.4351C21.6588 23.2732 21.7404 23.1922 21.822 23.1113C21.9037 23.0303 21.9853 22.9494 21.9853 22.9494H22.0669C22.2302 22.8685 22.4751 22.9494 22.6383 23.1113C22.8832 23.2732 23.1281 23.516 23.2913 23.7589C23.4546 24.0017 23.6995 24.2446 24.026 24.5683C24.3525 24.8921 24.5974 25.135 24.7606 25.2159L25.0055 25.3778C25.1688 25.4588 25.332 25.5397 25.5769 25.6207C25.8218 25.7016 25.985 25.7016 26.1483 25.7016L28.9236 25.6207C29.1685 25.6207 29.4134 25.5397 29.5767 25.4588C29.7399 25.3778 29.8215 25.2969 29.8215 25.135C29.8215 25.054 29.8215 24.8921 29.8215 24.8112C29.6583 24.6493 29.6583 24.5683 29.6583 24.4874Z" fill="white"/>
</svg>
