<svg width="40" height="39" viewBox="0 0 40 39" fill="none" xmlns="http://www.w3.org/2000/svg">
<ellipse cx="19.6639" cy="19.5" rx="19.6639" ry="19.5" fill="#7DBDEC"/>
<path d="M27.4576 11.7608C25.5152 9.84131 22.9253 8.7749 20.1915 8.7749C14.5082 8.7749 9.90397 13.3249 9.90397 18.9413C9.90397 20.7187 10.4076 22.496 11.2708 23.989L9.83203 29.2499L15.2995 27.828C16.8103 28.6101 18.4649 29.0366 20.1915 29.0366C25.8749 29.0366 30.4791 24.4866 30.4791 18.8702C30.4071 16.2397 29.4 13.6804 27.4576 11.7608ZM25.1554 22.5671C24.9396 23.1358 23.9325 23.7046 23.4289 23.7757C22.9972 23.8468 22.4217 23.8468 21.8462 23.7046C21.4865 23.5624 20.9829 23.4202 20.4073 23.1358C17.8175 22.0694 16.1628 19.5101 16.019 19.2968C15.8751 19.1546 14.9398 17.946 14.9398 16.6663C14.9398 15.3866 15.5873 14.8179 15.8031 14.5335C16.019 14.2491 16.3067 14.2491 16.5225 14.2491C16.6664 14.2491 16.8822 14.2491 17.0261 14.2491C17.17 14.2491 17.3858 14.178 17.6017 14.6757C17.8175 15.1733 18.3211 16.453 18.393 16.5241C18.4649 16.6663 18.4649 16.8085 18.393 16.9507C18.3211 17.0929 18.2491 17.2351 18.1052 17.3772C17.9614 17.5194 17.8175 17.7327 17.7455 17.8038C17.6016 17.946 17.4578 18.0882 17.6017 18.3015C17.7455 18.5858 18.2491 19.3679 19.0405 20.0788C20.0476 20.9319 20.839 21.2163 21.1268 21.3585C21.4145 21.5007 21.5584 21.4296 21.7023 21.2874C21.8462 21.1452 22.3498 20.5765 22.4936 20.2921C22.6375 20.0077 22.8533 20.0788 23.0692 20.1499C23.285 20.221 24.5799 20.8608 24.7957 21.003C25.0835 21.1452 25.2274 21.2163 25.2993 21.2874C25.3713 21.5007 25.3713 21.9983 25.1554 22.5671Z" fill="white"/>
</svg>
